<svg width="553" height="583" viewBox="0 0 553 583" fill="none" xmlns="http://www.w3.org/2000/svg">
<path d="M161.848 163.473C161.513 162.132 160.284 160.456 159.082 159.73L151.79 155.399C150.589 154.701 148.494 153.946 147.125 153.723L138.743 152.382C137.374 152.158 135.809 150.929 135.251 149.672L134.245 147.381C133.686 146.124 132.149 144.727 130.836 144.28L126.562 142.855C125.249 142.408 123.377 141.262 122.399 140.256L119.046 136.876C118.068 135.898 116.141 135.088 114.744 135.088H90.4651C89.0682 135.088 87.5595 134.026 87.0566 132.713L85.7994 129.332C85.3244 128.047 83.8437 126.594 82.5306 126.147L77.3619 124.359C76.0488 123.912 74.7357 122.432 74.4284 121.063L74.2607 120.364C73.9534 119.023 72.6962 117.375 71.4669 116.704L64.7058 113.044C63.4765 112.374 62.9736 110.837 63.5603 109.58L65.7116 105.082C66.2983 103.825 67.8908 102.539 69.2598 102.232L81.1616 99.494C82.5026 99.1867 84.3186 99.8293 85.1847 100.919L86.8052 102.986C87.6713 104.076 89.4593 104.691 90.8004 104.355L92.812 103.852C94.153 103.517 95.4661 102.12 95.7176 100.751L96.0808 98.7956C96.3322 97.4266 97.4777 95.6944 98.6232 94.9121L115.582 83.4852C116.727 82.7029 117.398 80.9707 117.035 79.6297L115.275 72.8686C114.939 71.5275 115.777 70.4379 117.174 70.4659L142.738 70.829C144.135 70.857 145.169 69.7394 145.057 68.3425L144.163 56.5524C144.051 55.1834 142.878 53.7586 141.537 53.3954L139.944 52.9763C138.603 52.6131 137.374 51.1882 137.234 49.8192L136.927 47.0812C136.787 45.7123 135.502 44.6227 134.133 44.7065L121.477 45.3211C120.08 45.377 118.488 46.4666 117.873 47.7238L116.56 50.4898C115.973 51.747 114.381 52.5572 113.012 52.3058L104.155 50.6574C102.786 50.4059 101.78 49.0649 101.92 47.6959L102.283 44.0918C102.423 42.7228 103.596 41.1862 104.909 40.7113L111.838 38.1409C113.151 37.666 114.688 36.2411 115.303 35.0118L121.281 22.7188C121.896 21.4616 121.253 20.4558 119.857 20.4558H88.7609C87.364 20.4558 85.4082 21.2381 84.4025 22.188L80.7425 25.6244C79.7367 26.5743 77.781 27.2449 76.412 27.1052L10.7005 20.7072C9.33149 20.5675 8.35364 21.5733 8.52127 22.9703L10.002 33.9222C10.1976 35.2912 9.19179 36.4087 7.8228 36.4087H2.51447C1.11754 36.4087 0 37.5542 0 38.9232V46.3828C0 47.7797 0.949911 49.5119 2.12333 50.2383L6.06267 52.7248C7.23609 53.4792 9.33149 54.0659 10.7005 54.0659H13.4105C14.8074 54.0659 15.9809 52.9204 16.0647 51.5514L16.2044 48.8134C16.2882 47.4165 17.4896 46.3828 18.8585 46.4666L34.0851 47.4445C35.482 47.5283 37.298 48.5061 38.1362 49.5957L42.3828 55.0996C43.221 56.1892 43.7518 58.2287 43.5563 59.5977L42.5505 66.6941C42.3549 68.0631 41.0697 69.4042 39.7287 69.6556L35.6217 70.4379C34.2527 70.6894 33.1352 72.0304 33.1072 73.4273L32.744 99.8572C32.7161 101.254 33.5263 103.154 34.5321 104.132L42.9695 112.262C43.9753 113.212 44.59 115.14 44.3665 116.509L43.8915 119.302C43.668 120.671 44.562 122.096 45.9031 122.46L63.0294 127.153C64.3705 127.516 65.7954 128.913 66.1865 130.226L66.9129 132.657C67.304 133.998 68.7569 135.06 70.1538 135.06H72.8638C74.2607 135.06 75.5739 136.177 75.8253 137.546L76.2444 139.977C76.4958 141.346 77.809 142.464 79.2059 142.464H83.6481C85.045 142.464 86.3582 143.581 86.6096 144.95L87.4757 149.895C87.7272 151.264 86.7772 152.382 85.3803 152.382H84.8215C83.4246 152.382 82.1674 153.499 82.0277 154.896L80.8822 164.982C80.7146 166.351 81.4689 168.195 82.5306 169.089L90.7166 175.794C91.7783 176.66 92.6723 178.532 92.6723 179.901V189.959C92.6723 191.356 93.5663 193.172 94.6559 194.01L100.16 198.257C101.249 199.095 102.227 200.939 102.339 202.308L104.993 240.388C105.077 241.757 106.083 243.573 107.172 244.411L110.05 246.563C111.168 247.401 112.062 249.217 112.062 250.586V260.644C112.062 262.041 113.095 263.605 114.381 264.136L125.249 268.662C126.534 269.193 127.847 268.522 128.182 267.181L129.97 260.001C130.306 258.66 129.691 256.844 128.601 256.006L126.534 254.386C125.444 253.519 124.634 251.703 124.718 250.307L126.115 229.045C126.199 227.648 127.065 225.721 128.043 224.743L149.527 202.895C150.505 201.917 151.287 199.961 151.287 198.564V187.64C151.287 186.243 152.07 184.288 153.02 183.282L162.072 173.587C163.022 172.581 163.525 170.654 163.217 169.285L161.848 163.473ZM131.451 24.2275C132.122 25.4288 132.373 27.5242 132.01 28.8653L130.138 35.6823C129.775 37.0234 130.585 38.2806 131.954 38.5041L138.492 39.5378C139.861 39.7613 141.816 39.1746 142.822 38.2247L143.437 37.666C144.442 36.716 145.281 34.8162 145.281 33.4193V29.2564C145.281 27.8595 144.247 26.2949 142.962 25.7362L138.072 23.6128C136.815 23.0541 136.201 21.5733 136.759 20.2881L137.206 19.2265C137.765 17.9413 139.274 16.5444 140.587 16.0694L155.171 10.9846C156.484 10.5376 158.3 9.30829 159.222 8.24662L160.2 7.12908C161.122 6.09535 161.541 4.13965 161.122 2.82654L160.731 1.51342C160.34 0.172369 158.998 -0.386401 157.769 0.284125L149.946 4.3911C148.717 5.03368 146.594 5.53658 145.197 5.50864L131.507 5.28513C130.11 5.25719 128.657 6.3468 128.294 7.65991L126.925 12.3257C126.534 13.6667 126.757 15.7342 127.428 16.9635L131.451 24.2275ZM201.8 7.99517L179.338 2.18395C177.997 1.84868 176.013 2.26776 174.923 3.13386L163.832 11.9625C162.742 12.8285 160.787 13.8902 159.473 14.3093L151.986 16.7399C150.673 17.159 149.583 18.6118 149.583 19.9808C149.583 21.3498 150.729 22.4394 152.098 22.4394H155.953C157.35 22.4394 158.188 23.529 157.853 24.8701L154.64 37.4983C154.305 38.8394 154.417 41.0186 154.892 42.3038L157.629 49.8472C158.104 51.1603 159.613 52.222 161.01 52.222H163.636C165.033 52.222 166.737 51.2441 167.464 50.0707L176.488 35.3191C177.214 34.1457 178.891 32.8326 180.204 32.4135L201.8 25.6244C203.113 25.2053 204.203 23.7246 204.203 22.3556V11.1243C204.231 9.75531 203.141 8.33044 201.8 7.99517ZM223.313 37.8056L225.492 34.4251C226.247 33.2517 225.8 31.8827 224.514 31.3798L220.296 29.7035C219.011 29.2006 217.39 29.7593 216.72 30.9607L215.183 33.6707C214.512 34.8721 214.959 36.3808 216.189 37.0234L219.709 38.8114C220.938 39.4261 222.559 38.9791 223.313 37.8056ZM242.73 60.855C243.513 62.0005 244.798 61.9725 245.58 60.827L246.334 59.6816C247.089 58.5361 246.921 56.7759 245.943 55.7981L244.155 54.01C243.177 53.0322 241.781 53.1998 241.054 54.3732L241.026 54.4291C240.3 55.6025 240.356 57.5023 241.166 58.6478L242.73 60.855ZM251.699 67.197H251.922C253.319 67.197 255.051 66.2471 255.834 65.0737L256.756 63.6768C257.51 62.5034 258.097 60.4359 258.041 59.039L257.678 50.2104C257.622 48.8134 256.56 48.1709 255.303 48.7576L254.018 49.3722C252.76 49.9589 251.727 51.5794 251.727 52.9763V55.9378C251.727 57.3347 251.168 59.1787 250.469 60.0727C249.771 60.9667 249.212 62.8107 249.212 64.2076V64.6826C249.184 66.0515 250.302 67.197 251.699 67.197ZM552.653 40.5436L548.546 34.1177C547.792 32.9443 546.06 32.0782 544.663 32.162L521.837 33.6149C520.44 33.6987 518.54 32.9443 517.59 31.9385L512.17 26.2391C511.22 25.2333 509.32 24.2275 507.951 23.976L476.185 18.5001C474.816 18.2766 472.581 18.3045 471.24 18.5839L446.235 23.8922C444.866 24.1716 442.854 23.7246 441.765 22.8864L429.5 13.6388C428.382 12.8006 426.343 12.1301 424.974 12.1301H377.562C376.165 12.1301 374.098 12.7447 372.924 13.4991L365.297 18.4442C364.124 19.1985 363.202 20.9587 363.257 22.3277L363.425 29.452C363.453 30.8489 362.391 31.6871 361.05 31.3518L352.892 29.3123C351.551 28.977 349.735 29.5917 348.869 30.6813L343.114 37.9174C342.248 39.007 340.404 39.901 339.035 39.901H323.92C322.523 39.901 320.791 38.9511 320.036 37.7777L314.449 28.977C313.694 27.8036 312.018 26.4905 310.705 26.0435L304.503 23.9202C303.19 23.4731 301.038 23.4731 299.753 23.9481L284.638 29.3682C283.325 29.8431 281.509 31.0724 280.615 32.1062L271.479 42.5273C270.557 43.561 270.529 45.2932 271.395 46.3828L274.497 50.2383C275.363 51.3279 277.207 52.194 278.604 52.194H284.471C285.868 52.194 287.712 51.3279 288.606 50.2663L295.73 41.8288C296.624 40.7671 298.468 40.1245 299.809 40.4319L300.815 40.6554C302.184 40.9348 303.189 42.3038 303.05 43.7007L302.91 45.1814C302.77 46.5504 303.553 48.4223 304.586 49.3163L304.614 49.3443C305.676 50.2383 305.536 51.5235 304.307 52.194L301.625 53.6468C300.396 54.3173 299.278 55.9657 299.138 57.3627L298.803 60.4359C298.663 61.8049 297.406 63.0062 296.009 63.0621L278.576 63.9003C277.179 63.9562 275.754 62.9224 275.391 61.6093L274.916 59.8771C274.552 58.5361 273.1 57.4465 271.731 57.4465H269.076C267.68 57.4465 266.087 58.4802 265.5 59.7374L263.154 64.9061C262.567 66.1633 261.058 67.6161 259.745 68.0911L258.823 68.4543C257.538 68.9572 255.75 70.2423 254.884 71.304L252.732 73.9302C251.866 74.9919 251.615 76.9197 252.202 78.1769L253.934 81.8927C254.521 83.15 253.878 84.3234 252.509 84.5189L246.251 85.3571C244.882 85.5247 244.016 86.782 244.323 88.151L245.832 94.521C246.139 95.862 247.508 97.231 248.877 97.5383L255.694 99.075C257.035 99.3823 258.152 98.4882 258.152 97.1192V95.0518C258.152 93.6549 259.13 91.9506 260.304 91.2242L265.305 88.2068C266.478 87.4804 268.574 87.0614 269.943 87.2569L275.027 88.0113C276.396 88.2068 278.045 89.3803 278.687 90.6096L280.811 94.7165C281.453 95.9458 281.286 97.8736 280.448 98.9632L279.917 99.6617C279.079 100.779 279.106 102.567 279.973 103.657L280.392 104.16C281.258 105.249 282.822 105.389 283.884 104.495L287.739 101.226C288.801 100.332 289.164 98.5721 288.55 97.3428L285.476 91.1683C284.862 89.939 285.281 88.2627 286.398 87.4525L287.656 86.5585C288.773 85.7483 290.338 86.0276 291.092 87.1731L296.596 95.415C297.378 96.5605 299.055 97.1193 300.368 96.6443L306.291 94.493C307.604 94.0181 309.42 94.493 310.314 95.5268L317.941 104.188C318.863 105.221 319.338 107.177 319.031 108.518L318.416 111.033C318.081 112.374 316.712 113.715 315.371 113.994L296.009 118.017C294.64 118.297 292.489 118.129 291.176 117.654L284.052 114.972C282.766 114.497 281.006 113.184 280.14 112.094L275.223 105.724C274.385 104.635 272.541 103.797 271.172 103.908L258.432 104.746C257.035 104.83 255.051 105.641 253.962 106.507L228.817 127.041C227.755 127.908 226.722 129.752 226.554 131.148L225.716 137.714C225.548 139.083 224.57 140.983 223.537 141.905L221.916 143.386C220.882 144.335 220.156 146.207 220.24 147.604L221.022 157.858C221.134 159.227 222.084 161.099 223.173 161.965L236.165 172.693C237.227 173.587 239.238 174.286 240.635 174.286H263.74C265.137 174.286 267.121 175.012 268.182 175.934L272.345 179.482C273.407 180.376 274.329 182.248 274.385 183.645L274.72 190.769C274.776 192.166 275.81 193.899 276.983 194.625L283.66 198.788C284.834 199.514 285.728 201.246 285.616 202.643L283.884 227.257C283.8 228.626 284.582 230.47 285.672 231.336L290.617 235.303C291.707 236.17 292.517 238.014 292.461 239.383L291.511 258.94C291.455 260.336 292.517 261.538 293.914 261.65L307.548 262.739C308.917 262.851 310.873 262.125 311.85 261.147L326.071 246.926C327.049 245.948 327.859 244.02 327.859 242.623V228.095C327.859 226.698 328.725 224.854 329.815 223.988L338.644 216.808C339.705 215.942 340.711 214.098 340.823 212.701L342.443 194.904C342.583 193.535 343.421 191.552 344.343 190.49L360.855 171.743C361.777 170.709 362.531 168.726 362.531 167.329V159.925C362.531 158.528 361.386 157.411 360.017 157.439L339.286 157.69C337.889 157.718 336.716 156.573 336.66 155.204L336.297 147.632C336.241 146.235 335.319 144.391 334.257 143.497L329.508 139.502C328.446 138.608 327.496 136.736 327.384 135.367L326.909 129.724C326.798 128.355 327.803 126.958 329.144 126.622L334.313 125.393C335.654 125.086 337.582 125.617 338.588 126.567L345.628 133.356C346.634 134.305 347.388 136.233 347.305 137.63L346.718 147.772C346.634 149.169 347.64 150.65 348.953 151.097L352.166 152.158C353.479 152.605 355.295 152.074 356.189 151.013L366.889 138.273C367.784 137.211 367.616 135.619 366.554 134.753L356.86 126.958C355.77 126.092 355.63 124.499 356.524 123.437L359.514 119.889C360.408 118.828 362.224 118.213 363.593 118.548L366.107 119.163C367.448 119.498 369.097 120.755 369.767 121.957L372.393 126.734C373.064 127.963 374.74 128.969 376.137 128.997L384.128 129.193C385.525 129.221 386.642 130.394 386.642 131.763V137.993C386.642 139.39 387.76 140.62 389.157 140.759L396.281 141.458C397.65 141.597 398.572 142.827 398.32 144.168L396.588 153.443C396.337 154.812 396.84 156.796 397.734 157.858L407.875 170.262C408.741 171.324 410.613 172.218 411.982 172.218H413.77C415.167 172.218 416.732 171.184 417.291 169.899L430.422 139.111C430.953 137.826 432.545 136.792 433.942 136.792H435.423C436.82 136.792 438.72 137.63 439.669 138.636L447.464 146.934C448.414 147.94 449.197 149.895 449.197 151.292V160.735C449.197 162.132 449.895 164.144 450.733 165.261L455.371 171.296C456.209 172.386 457.718 172.498 458.696 171.52L460.121 170.123C461.098 169.145 461.07 167.608 460.009 166.714L457.913 164.898C456.852 164.004 456.097 162.132 456.237 160.735L456.349 159.562C456.489 158.193 457.718 157.048 459.115 157.048H459.422C460.819 157.048 462.356 158.109 462.831 159.394L463.389 160.875C463.892 162.16 465.261 162.635 466.435 161.909L472.218 158.361C473.391 157.634 474.369 155.902 474.369 154.533V146.794C474.369 145.397 473.391 143.693 472.19 142.994L469.117 141.178C467.915 140.48 467.133 138.776 467.357 137.407L468.335 131.26C468.558 129.891 469.871 128.913 471.24 129.053L478.085 129.835C479.454 130.003 481.074 129.109 481.633 127.824L486.327 117.654C486.914 116.397 486.662 114.497 485.796 113.407L480.376 106.674C479.51 105.585 478.979 103.601 479.231 102.232L480.46 95.0797C480.683 93.7107 482.024 92.5932 483.393 92.5932H488.143C489.54 92.5932 490.602 91.4477 490.546 90.0787L489.009 59.9889C488.925 58.5919 489.791 56.7759 490.881 55.9378L496.077 51.9426C497.167 51.1044 499.207 50.4898 500.576 50.6015L514.21 51.6911C515.579 51.8029 516.808 53.0322 516.892 54.4012L517.758 67.4205C517.842 68.8175 518.959 70.41 520.216 70.9687L522.452 71.9745C523.709 72.5612 525.189 71.9745 525.72 70.6894L533.264 52.7248C533.795 51.4397 535.219 49.8192 536.421 49.1208L545.11 43.9801C546.311 43.2816 548.406 42.6949 549.803 42.6949H551.591C552.877 42.667 553.407 41.717 552.653 40.5436ZM500.268 103.35C499.765 104.635 499.71 106.758 500.156 108.071L501.637 112.402C502.084 113.715 503.593 114.888 504.962 115L506.61 115.14C507.979 115.251 509.739 114.413 510.522 113.24L513.511 108.77C514.293 107.624 514.908 105.529 514.908 104.16V88.9053C514.908 87.5084 514.154 85.5247 513.26 84.491L510.801 81.6972C509.879 80.6634 508.063 80.1605 506.75 80.6355L504.85 81.306C503.537 81.753 502.922 83.1779 503.509 84.4351L504.766 87.229C505.325 88.4862 505.381 90.5816 504.878 91.8668L500.268 103.35ZM358.508 213.651L357.865 213.232C356.692 212.478 355.044 212.785 354.177 213.875L343.952 226.978C343.086 228.067 342.834 229.995 343.393 231.28L344.986 235.052C345.516 236.337 347.081 237.567 348.45 237.818L349.26 237.958C350.629 238.209 352.669 237.762 353.814 236.98L358.592 233.627C359.737 232.817 360.659 231.057 360.659 229.66V217.507C360.631 216.138 359.681 214.405 358.508 213.651ZM459.618 192.781H466.127C467.524 192.781 468.642 191.635 468.642 190.266V187.417C468.642 186.02 467.496 184.874 466.127 184.874L461.825 184.818C460.428 184.791 459.059 183.673 458.752 182.332L458.081 179.315C457.774 177.974 456.516 176.381 455.259 175.794L448.275 172.498C447.017 171.911 445.397 172.386 444.643 173.559L444.223 174.23C443.497 175.403 443.19 177.443 443.581 178.784L445.313 184.846C445.704 186.187 447.017 187.78 448.247 188.395L454.84 191.691C456.097 192.278 458.249 192.781 459.618 192.781ZM494.681 184.986L492.669 180.851C492.054 179.594 490.574 179.119 489.344 179.762L482.024 183.617C480.795 184.26 480.432 185.74 481.214 186.886L482.611 188.953C483.393 190.099 485.126 191.356 486.439 191.747L496.944 194.793C498.285 195.184 500.268 194.904 501.358 194.15C502.447 193.424 502.447 192.138 501.33 191.328L497.838 188.786C496.692 187.92 495.267 186.243 494.681 184.986ZM501.106 243.322L504.655 237.594C505.381 236.421 506.079 234.326 506.163 232.929L507.113 220.189C507.225 218.82 506.75 216.668 506.079 215.467L498.285 201.218C497.614 199.989 495.966 199.263 494.625 199.598L493.982 199.766C492.641 200.101 491.523 201.498 491.523 202.867V203.174C491.523 204.571 490.685 205.689 489.624 205.689C488.562 205.689 486.969 204.85 486.048 203.817L485.628 203.342C484.706 202.308 482.835 201.665 481.466 201.889L473.308 203.258C471.939 203.481 470.234 204.655 469.536 205.856L467.217 209.74C466.518 210.941 464.87 212.338 463.613 212.869L454.477 216.696C453.192 217.227 452.158 218.792 452.158 220.189V240.5C452.158 241.897 453.164 243.573 454.365 244.244H454.393C455.622 244.914 457.662 245.082 458.975 244.635L463.11 243.182C464.423 242.735 465.82 241.254 466.239 239.941L466.295 239.802C466.714 238.488 468.167 237.175 469.536 236.896L474.369 235.946C475.738 235.667 477.526 236.365 478.364 237.483L482.89 243.462C483.729 244.579 485.545 245.473 486.942 245.473H497.251C498.648 245.445 500.38 244.495 501.106 243.322ZM514.908 249.105L514.21 248.546C513.12 247.68 511.5 247.848 510.606 248.91L508.985 250.837C508.091 251.899 506.303 253.156 504.99 253.603L501.078 255C499.765 255.475 499.011 256.928 499.402 258.269L499.765 259.526C500.157 260.867 501.581 261.733 502.95 261.454L506.666 260.728C508.035 260.448 509.544 259.498 510.019 258.604C510.522 257.71 511.947 256.704 513.232 256.397C514.517 256.09 515.858 254.749 516.193 253.408L516.277 253.044C516.612 251.759 515.998 249.971 514.908 249.105ZM525.217 235.443C524.547 235.443 523.29 235.192 522.452 234.884C521.585 234.577 520.3 235.303 519.602 236.477L518.205 238.824C517.478 240.025 517.674 241.841 518.596 242.847L519.211 243.545C520.133 244.579 521.753 244.663 522.787 243.769L527.005 240.081C528.039 239.159 528.347 237.734 527.676 236.924C527.005 236.142 525.888 235.443 525.217 235.443Z" fill="#DADADA"/>
<path d="M412.323 36.9416L409.602 30.6709C409.255 29.8437 408.294 29.4701 407.467 29.817L401.196 32.5388C400.796 32.6989 400.342 32.7255 399.942 32.5654L393.591 30.0572C392.764 29.737 391.803 30.1372 391.483 30.9644L388.975 37.3152C388.815 37.7154 388.495 38.0356 388.121 38.1957L381.85 40.9175C381.023 41.2644 380.65 42.225 380.996 43.0522L383.718 49.3229C383.878 49.7231 383.905 50.1768 383.745 50.577L381.237 56.9278C380.916 57.755 381.317 58.7156 382.144 59.0358L388.495 61.5441C388.895 61.7042 389.215 62.0244 389.375 62.398L392.097 68.6687C392.444 69.4959 393.404 69.8694 394.232 69.5226L400.502 66.8008C400.903 66.6407 401.356 66.614 401.756 66.7741L408.107 69.2824C408.934 69.6026 409.895 69.2023 410.215 68.3751L412.724 62.0244C412.884 61.6241 413.204 61.3039 413.577 61.1438L419.848 58.4221C420.675 58.0752 421.049 57.1146 420.702 56.2874L417.98 50.0167C417.82 49.6164 417.793 49.1628 417.954 48.7625L420.462 42.4118C420.782 41.5846 420.382 40.624 419.555 40.3038L413.204 37.7955C412.83 37.6354 412.51 37.3418 412.323 36.9416Z" fill="#F4B503"/>
<path d="M402.128 58.9927C407.286 58.3159 410.919 53.5859 410.242 48.428C409.565 43.27 404.835 39.6373 399.677 40.3141C394.519 40.9909 390.887 45.7209 391.563 50.8789C392.24 56.0368 396.97 59.6695 402.128 58.9927Z" fill="#F9CD15"/>
<path d="M471.188 97.9943C469.507 90.5762 462.889 85.026 454.938 84.9993C450.535 84.9726 446.532 86.6537 443.517 89.4288C439.381 82.491 431.829 77.848 423.184 77.8213C413.978 77.768 405.973 82.9713 401.997 90.6029C400.076 89.4288 397.807 88.735 395.379 88.7083C389.642 88.6817 384.786 92.4174 383.131 97.6207L471.188 97.9943Z" fill="white"/>
<path d="M170.788 496.337C170.788 496.337 224.001 428.931 255.632 429.151C287.282 429.371 321.755 473.545 366.771 511.282C417.234 553.566 351.35 555.345 347.536 555.693C343.74 556.042 212.523 551.403 210.34 549.129C208.158 546.855 173.117 517.608 173.117 517.608L170.788 496.337Z" fill="#C5DDF9"/>
<path d="M443.779 498.37H446.035V473.451H443.779V498.37Z" fill="#355389"/>
<path d="M444.923 425.099L452.258 484.4H437.588L444.923 425.099Z" fill="#3C8F7C"/>
<path d="M449.598 462.89L439.128 471.875L439.531 468.612L449.268 460.268L449.598 462.89Z" fill="#50BFA5"/>
<path d="M447.984 449.89L441.585 452.09L441.878 449.652L447.709 447.653L447.984 449.89Z" fill="#50BFA5"/>
<path d="M137.58 454.474L144.145 507.431H131.034L137.58 454.474Z" fill="#3C8F7C"/>
<path d="M149.133 462.268L154.12 502.59H144.145L149.133 462.268Z" fill="#3C8F7C"/>
<path d="M159.107 474.259L164.095 514.6H154.12L159.107 474.259Z" fill="#3C8F7C"/>
<path d="M125.332 466.302L131.878 519.259H118.768L125.332 466.302Z" fill="#3C8F7C"/>
<path d="M150.105 482.768C206.949 492.23 292.233 577.221 357.182 577.221C422.131 577.221 436.121 556.885 460.491 561.195C484.842 565.485 517.555 577.221 517.555 577.221L34.8398 578.651C34.8398 578.651 93.2608 473.325 150.105 482.768Z" fill="#86B1F2"/>
<path d="M355.843 458.014L362.408 510.952H349.297L355.843 458.014Z" fill="#3C8F7C"/>
<path d="M371.447 473.599L376.435 513.922H366.459L371.447 473.599Z" fill="#3C8F7C"/>
<path d="M332.133 495.127L337.121 535.449H327.146L332.133 495.127Z" fill="#3C8F7C"/>
<path d="M343.594 469.822L350.141 522.779H337.03L343.594 469.822Z" fill="#3C8F7C"/>
<path d="M407.736 482.768C350.892 492.23 265.608 577.221 200.659 577.221C135.692 577.221 121.719 556.885 97.3496 561.195C72.9984 565.485 40.2856 577.221 40.2856 577.221L523.001 578.651C523.001 578.651 464.562 473.325 407.736 482.768Z" fill="#86B1F2"/>
<path d="M388.269 562.122H390.836V533.681H388.269V562.122Z" fill="#355389"/>
<path d="M389.564 478.532L397.926 546.194H381.184L389.564 478.532Z" fill="#3C8F7C"/>
<path d="M394.9 521.66L382.962 531.892L383.421 528.188L394.515 518.653L394.9 521.66Z" fill="#50BFA5"/>
<path d="M393.066 506.825L385.75 509.319L386.098 506.55L392.736 504.276L393.066 506.825Z" fill="#50BFA5"/>
<path d="M417.268 574.247H419.707V531.357H417.268V574.247Z" fill="#355389"/>
<path d="M417.84 454.896L429.905 541.464H405.792L417.84 454.896Z" fill="#3C8F7C"/>
<path d="M429.134 535.963L407.497 529.142L407.827 526.795L428.786 533.414L429.134 535.963Z" fill="#50BFA5"/>
<path d="M425.339 508.623L411 504.094L411.312 501.747L424.973 506.056L425.339 508.623Z" fill="#50BFA5"/>
<path d="M34.8398 578.652C34.8398 578.652 97.1665 524.521 177.518 521.202C204.492 520.084 314.989 542.473 408.03 560.058C411.935 560.791 420.389 568.035 424.349 568.786C468.394 577.075 509.45 578.817 522.726 579.348L34.8398 578.652Z" fill="#96D9C9"/>
<path d="M535.8 519.112L535.892 514.455C535.892 510.989 533.251 508.202 530.006 508.202C521.809 508.202 515.153 515.261 515.153 523.971V530.334C515.153 533.121 513.668 535.542 511.504 536.77C509.523 537.871 508.332 540.089 508.332 542.455V545.81C508.332 549.441 509.945 552.833 512.604 555.107C514.163 556.446 515.171 558.481 515.171 560.773V565.522C515.171 570.785 519.187 575.039 524.138 575.039H526.962C531.913 575.039 535.928 570.785 535.928 565.522C535.122 558.884 537.084 555.052 539.357 552.852C542.695 549.624 544.657 545.095 544.657 540.309V539.631C544.657 534.57 542.456 529.839 538.789 526.612C537.12 525.218 535.8 522.908 535.8 519.112Z" fill="#4E9B87"/>
<path d="M545.023 580.558C545.023 580.558 522.139 550.174 507.745 545.516C493.35 540.858 506.92 559.36 506.92 559.36C506.92 559.36 481.377 531.433 472.007 533.946C463.425 536.256 472.007 553.566 472.007 553.566C472.007 553.566 462.325 543.976 450.589 543.976C438.854 543.976 459.666 579.861 459.666 579.861L545.023 580.558Z" fill="#96D9C9"/>
<path d="M472.007 579.88C472.007 579.88 456.365 538.053 437.002 542.894C421.306 546.818 432.473 567.851 431.501 566.897C430.547 565.944 422.131 551.659 408.506 551.659C394.882 551.659 412.687 570.931 412.687 570.931C412.687 570.931 383.678 561.873 381.405 571.39C379.516 579.293 390.06 579.88 390.06 579.88H472.007Z" fill="#3C8F7C"/>
<path d="M114.495 572.068C114.586 571.555 114.623 571.005 114.623 570.473C114.623 564.422 108.957 559.508 101.952 559.508C94.9478 559.508 89.2817 564.422 89.2817 570.473C89.2817 571.023 89.3184 571.555 89.4101 572.068H114.495Z" fill="#3C8F7C"/>
<path d="M128.834 569.373C128.926 568.64 128.962 567.888 128.962 567.118C128.962 558.591 123.296 551.66 116.292 551.66C109.287 551.66 103.621 558.573 103.621 567.118C103.621 567.888 103.658 568.64 103.749 569.373H128.834Z" fill="#50BFA5"/>
<path d="M124.195 578.853C124.104 578.339 124.067 577.789 124.067 577.258C124.067 571.206 129.733 566.292 136.738 566.292C143.742 566.292 149.408 571.206 149.408 577.258C149.408 577.808 149.372 578.339 149.28 578.853H124.195Z" fill="#50BFA5"/>
<path d="M103.934 578.853C103.824 578.12 103.769 577.368 103.769 576.598C103.769 568.071 110.957 561.14 119.832 561.14C128.707 561.14 135.895 568.053 135.895 576.598C135.895 577.368 135.84 578.12 135.73 578.853H103.934Z" fill="#3C8F7C"/>
<path d="M116.255 561.14C111.818 561.14 107.857 563.34 105.253 566.769C103.915 566.458 102.503 566.274 101.036 566.274C93.1693 566.274 86.7881 571.188 86.7881 577.24C86.7881 577.79 86.8431 578.321 86.9348 578.835H130.356C130.448 578.101 130.503 577.35 130.503 576.579C130.503 568.071 124.122 561.14 116.255 561.14Z" fill="#50BFA5"/>
<path d="M61.3351 546.305C57.6128 540.474 56.916 533.451 56.9893 528.573C57.0627 523.274 58.0529 519.313 58.0529 519.276L57.7778 519.185C57.7595 519.221 56.7876 523.219 56.6959 528.555C56.6226 533.487 57.3194 540.584 61.0968 546.488L61.3351 546.305Z" fill="#3C8F7C"/>
<path d="M58.9692 518.286C58.8775 519.478 58.3457 520.486 57.5756 521.11C56.9154 520.285 56.5487 519.13 56.6404 517.938C56.7321 516.746 57.2638 515.737 58.034 515.114C58.6941 515.957 59.0608 517.094 58.9692 518.286Z" fill="#3C8F7C"/>
<path d="M56.439 521.055C57.0808 522.1 57.2642 523.274 57.0625 524.301C56.0906 524.063 55.1554 523.384 54.532 522.357C53.8902 521.312 53.7068 520.138 53.9085 519.112C54.8804 519.35 55.8156 520.028 56.439 521.055Z" fill="#3C8F7C"/>
<path d="M55.0268 524.319C56.0169 524.961 56.6771 525.951 56.9338 526.978C55.9986 527.235 54.8984 527.088 53.9266 526.446C52.9364 525.804 52.2762 524.814 52.0195 523.787C52.9364 523.512 54.0366 523.677 55.0268 524.319Z" fill="#3C8F7C"/>
<path d="M55.4669 528.848C56.2371 529.361 56.7322 530.223 56.8605 531.177C56.0537 531.525 55.1369 531.488 54.3667 530.975C53.5966 530.461 53.1015 529.6 52.9731 528.646C53.7616 528.298 54.6785 528.334 55.4669 528.848Z" fill="#3C8F7C"/>
<path d="M58.6762 523.476C59.5564 523.018 60.5283 522.981 61.3717 523.311C61.1517 524.21 60.5649 525.035 59.6848 525.493C58.8046 525.952 57.8327 525.988 56.9893 525.658C57.2093 524.76 57.7961 523.934 58.6762 523.476Z" fill="#3C8F7C"/>
<path d="M58.5844 526.612C59.4646 526.153 60.4365 526.116 61.2799 526.447C61.0599 527.345 60.4731 528.17 59.593 528.629C58.7128 529.087 57.741 529.124 56.8975 528.794C57.1175 527.877 57.7043 527.07 58.5844 526.612Z" fill="#3C8F7C"/>
<path d="M56.0171 533.818C56.4756 533.928 56.8606 534.239 57.099 534.643C56.7689 534.918 56.3289 535.028 55.8704 534.936C55.412 534.826 55.027 534.514 54.7886 534.111C55.1186 533.836 55.5587 533.708 56.0171 533.818Z" fill="#3C8F7C"/>
<path d="M59.7949 550.412C51.2683 548.377 44.7588 542.051 40.798 537.118C36.5072 531.764 34.1968 526.813 34.1785 526.776L33.8301 526.96C33.8484 527.015 36.1772 531.984 40.4863 537.375C44.4837 542.363 51.0666 548.744 59.7033 550.798L59.7949 550.412Z" fill="#3C8F7C"/>
<path d="M34.2882 524.888C35.1867 526.172 35.4801 527.712 35.2417 529.106C33.9031 528.941 32.6012 528.17 31.6844 526.869C30.7676 525.567 30.4925 524.045 30.7309 522.651C32.0878 522.834 33.3897 523.586 34.2882 524.888Z" fill="#3C8F7C"/>
<path d="M34.0679 530.187C35.5532 530.59 36.7268 531.562 37.3686 532.791C36.2133 533.543 34.7097 533.818 33.2244 533.414C31.7392 533.011 30.5656 532.039 29.9238 530.81C31.079 530.059 32.5827 529.802 34.0679 530.187Z" fill="#3C8F7C"/>
<path d="M35.3335 534.882C36.8372 534.533 38.3224 534.845 39.441 535.615C38.7258 536.826 37.4973 537.779 35.9937 538.127C34.4901 538.476 33.0048 538.164 31.8862 537.394C32.6014 536.184 33.8116 535.23 35.3335 534.882Z" fill="#3C8F7C"/>
<path d="M38.7261 539.136C40.2297 538.787 41.715 539.099 42.8336 539.869C42.1184 541.079 40.8899 542.033 39.3862 542.381C37.8826 542.73 36.3974 542.418 35.2788 541.648C35.9939 540.437 37.2225 539.502 38.7261 539.136Z" fill="#3C8F7C"/>
<path d="M37.7174 532.057C37.644 530.609 38.1208 529.234 38.9276 528.262C39.8261 529.032 40.4495 530.26 40.5229 531.727C40.5962 533.176 40.1195 534.551 39.3127 535.523C38.3958 534.735 37.7907 533.506 37.7174 532.057Z" fill="#3C8F7C"/>
<path d="M41.2557 536.459C41.164 535.01 41.6225 533.635 42.411 532.645C43.3278 533.396 43.9696 534.625 44.0613 536.073C44.1529 537.522 43.6945 538.897 42.906 539.888C41.9892 539.136 41.3474 537.907 41.2557 536.459Z" fill="#3C8F7C"/>
<path d="M44.1899 543.353C44.74 542.987 45.3818 542.913 45.9502 543.097C45.8585 543.702 45.5101 544.27 44.96 544.637C44.4099 545.004 43.7681 545.077 43.1997 544.894C43.2914 544.27 43.6398 543.702 44.1899 543.353Z" fill="#3C8F7C"/>
<path d="M82.386 562.478L82.7527 562.459C82.2209 552.704 85.7966 543.518 88.8955 537.521C92.2512 531.03 95.7901 526.794 95.8268 526.739L95.5518 526.464C95.5151 526.501 91.9578 530.773 88.5655 537.301C85.4666 543.334 81.8542 552.613 82.386 562.478Z" fill="#3C8F7C"/>
<path d="M97.4587 526.171C96.6152 527.583 95.405 528.463 94.1764 528.72C93.9747 527.235 94.2681 525.584 95.1116 524.154C95.9551 522.742 97.1653 521.862 98.3939 521.605C98.5956 523.091 98.3022 524.759 97.4587 526.171Z" fill="#3C8F7C"/>
<path d="M92.9479 527.875C93.0029 529.581 92.4895 531.176 91.646 532.313C90.7108 531.359 90.0874 529.892 90.0323 528.169C89.9773 526.463 90.4908 524.868 91.3342 523.731C92.2694 524.685 92.8929 526.152 92.9479 527.875Z" fill="#3C8F7C"/>
<path d="M89.3539 530.92C90.0507 532.387 90.179 534.056 89.8123 535.523C88.6204 535.211 87.5019 534.276 86.8051 532.809C86.1083 531.342 85.9799 529.673 86.3466 528.206C87.5385 528.518 88.6571 529.472 89.3539 530.92Z" fill="#3C8F7C"/>
<path d="M86.8784 538.419C87.2084 539.006 87.3185 539.703 87.2084 540.326C86.695 540.235 86.1999 539.886 85.8699 539.3C85.5398 538.713 85.4298 538.016 85.5398 537.393C86.0532 537.484 86.5483 537.833 86.8784 538.419Z" fill="#3C8F7C"/>
<path d="M85.8144 541.115C86.1445 541.702 86.2545 542.399 86.1445 543.023C85.631 542.931 85.136 542.582 84.8059 541.996C84.4758 541.409 84.3658 540.712 84.4758 540.089C84.9893 540.18 85.4844 540.529 85.8144 541.115Z" fill="#3C8F7C"/>
<path d="M93.9194 532.388C95.1846 532.406 96.2848 533.048 97 534.038C96.1931 535.01 95.0379 535.615 93.791 535.597C92.5258 535.578 91.4256 534.937 90.7104 533.946C91.4989 532.975 92.6541 532.37 93.9194 532.388Z" fill="#3C8F7C"/>
<path d="M91.8657 536.183C93.1309 536.201 94.2311 536.843 94.9462 537.833C94.1394 538.805 92.9842 539.41 91.7373 539.391C90.4721 539.373 89.3719 538.731 88.6567 537.741C89.4636 536.769 90.6188 536.164 91.8657 536.183Z" fill="#3C8F7C"/>
<path d="M88.4923 541.373C89.3174 541.391 90.0325 541.794 90.491 542.436C89.9592 543.06 89.2074 543.463 88.4006 543.445C87.5754 543.426 86.8603 543.023 86.4019 542.381C86.9153 541.758 87.6671 541.373 88.4923 541.373Z" fill="#3C8F7C"/>
<path d="M50.5722 578.487C50.5722 576.855 60.3823 578.78 61.2075 576.562C62.0326 574.343 52.8092 574.215 52.8092 571.226C52.8092 568.237 57.5034 570.327 60.2723 570.327C63.0228 570.327 54.8263 569.044 54.8263 567.98C54.8263 566.917 57.7052 567.485 57.7052 566.348C57.7052 565.23 42.5957 564.368 44.3743 561.617C46.1347 558.867 54.2578 562.424 56.4949 560.994C58.732 559.563 44.5944 558.005 44.2276 555.896C43.8792 553.769 54.6429 557.711 56.1649 556.19C57.6868 554.668 39.13 549.185 39.9185 545.151C40.6886 541.117 53.9828 550.303 57.3017 549.313C60.6207 548.323 40.5603 534.185 45.2178 528.684C49.8754 523.183 58.787 546.911 61.8309 546.068C64.8748 545.224 58.0169 531.068 61.1341 528.611C64.233 526.154 73.1447 548.543 73.7132 553.127C74.2816 557.73 75.4001 543.244 80.2777 541.538C85.1553 539.851 80.4244 550.505 81.2679 553.769C82.1114 557.015 86.0721 545.426 91.4081 546.288C96.7441 547.131 81.763 557.73 83.2483 560.847C84.7335 563.964 96.304 550.468 99.9164 554.099C103.547 557.73 85.9804 567.778 86.9523 570.529C87.9058 573.279 98.4494 568.567 101.475 571.592C104.501 574.618 90.1612 576.543 88.2542 576.543C86.3472 576.543 79.0858 578.927 86.1821 578.469C93.2418 578.01 50.5722 580.101 50.5722 578.487Z" fill="#3C8F7C"/>
<path d="M78.5361 580.357C78.5361 580.357 90.345 580.999 93.7923 578.817C97.2396 576.653 94.5258 574.966 94.5258 574.966C94.5258 574.966 105.454 574.727 105.418 572.142C105.399 569.556 102.741 569.703 102.741 569.703C102.741 569.703 108.26 565.962 107.233 563.615C105.656 560.021 96.6712 566.274 96.6712 566.274C96.6712 566.274 99.6234 562.772 97.2396 561.965C90.6934 559.728 78.5361 580.357 78.5361 580.357Z" fill="#50BFA5"/>
<path d="M107.232 563.615C108.259 565.943 102.739 569.702 102.739 569.702C102.739 569.702 106.718 569.647 106.076 572.159C105.435 574.672 95.4228 575.515 95.4228 575.515C95.4228 575.515 98.9251 576.194 95.4778 578.357C92.0305 580.521 78.5347 580.338 78.5347 580.338L107.232 563.615Z" fill="#96D9C9"/>
<path d="M30.1646 477.249C30.1829 476.608 31.0631 476.113 31.5398 476.681C31.9983 477.249 31.9799 476.864 32.4383 478.093C33.7402 481.595 35.6656 484.988 37.8844 487.958C42.1568 493.643 46.3926 496.503 51.1968 499.345C49.2165 494.889 47.8962 490.122 47.7312 485.318C47.6762 483.576 47.6945 481.76 48.4463 480.147C48.648 479.707 49.4548 479.798 49.5465 480.293C49.9499 482.769 49.3632 484.639 50.1516 489.077C52.0587 499.657 59.6318 510.879 66.9481 518.746C65.5545 505.433 64.8761 490.324 67.3699 476.901C67.7733 474.701 68.4334 472.61 69.0385 470.447C69.1852 469.933 69.9003 470.153 69.8087 470.667C69.6803 471.382 68.4884 480.623 68.4151 481.247C67.2598 491.46 67.4799 502.793 68.3967 513.116C74.0628 505.433 77.8585 496.466 79.6372 487.096C80.1689 484.327 80.2973 481.467 81.0308 478.753C81.1408 478.386 81.7459 478.331 81.8192 478.753C82.571 482.824 81.0674 490.03 79.9672 493.954C77.7301 501.894 74.1545 509.009 69.2769 515.353C69.0935 515.592 77.125 577.698 76.905 578.487C76.5382 579.807 74.2278 580.742 73.8794 578.395C73.7327 577.442 69.3136 539.686 67.3332 522.193C66.5814 521.771 66.1046 521.038 64.1609 518.856C59.6868 513.813 55.2493 507.56 52.297 501.637C50.5184 501.527 37.6827 495.293 31.3198 481.082C31.1364 480.678 30.3113 478.753 30.1829 478.313C30.0546 477.928 30.1462 477.616 30.1646 477.249Z" fill="#184655"/>
<path d="M71.3675 457.115C71.2208 455.208 71.1475 453.246 71.1475 451.266C71.1475 429.078 80.5542 411.108 92.1797 411.108C103.787 411.108 113.212 429.097 113.212 451.266C113.212 453.246 113.139 455.208 112.992 457.115H71.3675Z" fill="#50BFA5"/>
<path d="M47.5843 447.25C47.4376 444.555 47.3643 441.804 47.3643 438.999C47.3643 407.716 56.771 382.357 68.3965 382.357C80.022 382.357 89.4104 407.698 89.4104 438.981C89.4104 441.786 89.3371 444.537 89.1904 447.232H47.5843V447.25Z" fill="#96D9C9"/>
<path d="M55.2678 481.944C55.4145 480.037 55.4879 478.075 55.4879 476.095C55.4879 453.907 46.0811 435.937 34.4556 435.937C22.8484 435.937 13.4233 453.925 13.4233 476.095C13.4233 478.075 13.4967 480.037 13.6434 481.944H55.2678Z" fill="#96D9C9"/>
<path d="M88.934 481.944C89.1174 479.248 89.209 476.498 89.209 473.692C89.209 442.41 77.2718 417.05 62.5474 417.05C47.823 417.05 35.8857 442.41 35.8857 473.692C35.8857 476.498 35.9774 479.248 36.1608 481.944H88.934Z" fill="#50BFA5"/>
<path d="M68.4701 417.05C75.8232 417.05 82.4061 425.1 86.7335 437.716C88.9339 436.56 91.281 435.937 93.7198 435.937C106.776 435.937 117.374 453.925 117.374 476.094C117.374 478.075 117.283 480.037 117.118 481.944H45.0541C44.889 479.248 44.7974 476.498 44.7974 473.692C44.8157 442.41 55.396 417.05 68.4701 417.05Z" fill="#96D9C9"/>
<path d="M32.6573 569.501C32.7306 568.786 32.7673 568.034 32.7673 567.282C32.7673 558.903 27.9997 552.1 22.1136 552.1C16.2275 552.1 11.46 558.903 11.46 567.282C11.46 568.034 11.4966 568.768 11.57 569.501H32.6573Z" fill="#3C8F7C"/>
<path d="M44.7046 565.761C44.778 564.734 44.8146 563.707 44.8146 562.643C44.8146 550.816 40.0471 541.244 34.161 541.244C28.2749 541.244 23.5073 550.835 23.5073 562.643C23.5073 563.707 23.544 564.752 23.6173 565.761H44.7046Z" fill="#50BFA5"/>
<path d="M40.799 578.871C40.7256 578.155 40.689 577.404 40.689 576.652C40.689 568.272 45.4565 561.469 51.3426 561.469C57.2287 561.469 61.9963 568.272 61.9963 576.652C61.9963 577.404 61.9596 578.137 61.8863 578.871H40.799Z" fill="#50BFA5"/>
<path d="M23.7639 578.871C23.6722 577.844 23.6172 576.817 23.6172 575.754C23.6172 563.927 29.6683 554.355 37.113 554.355C44.5761 554.355 50.6089 563.945 50.6089 575.754C50.6089 576.817 50.5539 577.862 50.4622 578.871H23.7639Z" fill="#3C8F7C"/>
<path d="M34.1245 554.355C30.4022 554.355 27.0649 557.399 24.8645 562.166C23.7459 561.726 22.554 561.488 21.3255 561.488C14.7059 561.488 9.35156 568.291 9.35156 576.671C9.35156 577.422 9.38824 578.156 9.47992 578.889H45.9701C46.0618 577.862 46.0984 576.836 46.0984 575.772C46.0984 563.945 40.7441 554.355 34.1245 554.355Z" fill="#50BFA5"/>
<path d="M235.996 408.282V406.916H231.384V408.282H235.996Z" fill="#F7CC7F"/>
<path d="M241.096 438.951V406.758C241.096 404.634 239.366 402.904 237.242 402.904H230.537C228.413 402.904 226.683 404.634 226.683 406.758V438.951C226.683 441.075 228.413 442.805 230.537 442.805H237.242C239.366 442.805 241.096 441.075 241.096 438.951Z" fill="#F47458"/>
<path d="M233.904 442.805H237.758C239.609 442.805 241.096 441.986 241.096 440.984V404.725C241.096 403.723 240.034 402.904 238.213 402.904H233.904V442.805Z" fill="#B75742"/>
<path d="M234.531 426.966V417.681H232.832V426.966H234.531Z" fill="#1A1A1A"/>
<path d="M254.811 438.891V415.466C254.811 413.312 253.051 411.552 250.897 411.552H244.312C242.158 411.552 240.398 413.312 240.398 415.466V438.891C240.398 441.045 242.158 442.805 244.312 442.805H250.897C253.051 442.805 254.811 441.045 254.811 438.891Z" fill="#355389"/>
<path d="M247.62 442.805H251.473C253.324 442.805 254.811 442.168 254.811 441.379V413.008C254.811 412.219 253.324 411.582 251.473 411.582H247.62V442.805Z" fill="#5184CE"/>
<path d="M249.709 415.739V414.677H245.097V415.739H249.709Z" fill="#F7CC7F"/>
<path d="M248.262 430.405V423.123H246.563V430.405H248.262Z" fill="#1A1A1A"/>
<path d="M179.47 443.321H178.772V450.33H179.47V443.321Z" fill="#13375B"/>
<path d="M262.912 443.321H262.214V450.33H262.912V443.321Z" fill="#13375B"/>
<path d="M232.782 428.392H185.204C182.868 428.392 180.987 430.273 180.987 432.61V438.557C180.987 440.893 182.868 442.775 185.204 442.775H232.782C235.118 442.775 237 440.893 237 438.557V432.61C237.03 430.273 235.118 428.392 232.782 428.392Z" fill="#B75742"/>
<path d="M237.031 435.583V431.73C237.031 429.879 235.878 428.392 234.482 428.392H183.567C182.171 428.392 181.018 429.879 181.018 431.73V435.583H237.031Z" fill="#91342A"/>
<path d="M190.03 433.49H188.118V438.102H190.03V433.49Z" fill="#F7CC7F"/>
<path d="M229.9 433.49H227.988V438.102H229.9V433.49Z" fill="#F7CC7F"/>
<path d="M214.759 434.947H201.712V436.646H214.759V434.947Z" fill="#1A1A1A"/>
<path d="M224.407 413.979H193.609C191.09 413.979 189.088 416.012 189.088 418.5V423.841C189.088 426.359 191.121 428.362 193.609 428.362H224.407C226.925 428.362 228.928 426.329 228.928 423.841V418.531C228.958 416.012 226.925 413.979 224.407 413.979Z" fill="#4E9B87"/>
<path d="M228.958 421.201V417.317C228.958 415.466 228.139 413.979 227.138 413.979H190.878C189.877 413.979 189.058 415.466 189.058 417.317V421.17H228.958V421.201Z" fill="#3C8F7C"/>
<path d="M194.428 419.107H193.063V423.719H194.428V419.107Z" fill="#F7CC7F"/>
<path d="M259.848 442.775L226.865 442.744L226.319 428.059H259.848C263.914 428.059 267.221 431.366 267.221 435.432C267.221 439.498 263.914 442.775 259.848 442.775Z" fill="#FAE0B2"/>
<path d="M233.905 435.432C233.905 439.498 230.871 442.805 227.138 442.805C223.406 442.805 220.372 439.498 220.372 435.432C220.372 431.366 223.406 428.059 227.138 428.059C230.871 428.059 233.905 431.366 233.905 435.432Z" fill="#F7CC7F"/>
<path d="M240.884 443.472C240.58 443.229 240.52 442.805 240.732 442.471C242.977 439.315 243.584 435.947 242.583 432.488C242.037 430.546 241.066 429.09 240.55 428.362C240.338 428.058 240.368 427.664 240.641 427.421C240.944 427.148 241.43 427.178 241.703 427.542C242.31 428.362 243.311 429.97 243.948 432.063C244.768 434.794 245.01 438.951 241.915 443.351C241.673 443.654 241.218 443.715 240.884 443.472Z" fill="#F47458"/>
<path d="M252.96 443.472C252.657 443.229 252.596 442.805 252.809 442.471C255.054 439.315 255.661 435.947 254.66 432.488C254.114 430.546 253.143 429.09 252.627 428.362C252.414 428.058 252.445 427.664 252.718 427.421C253.021 427.148 253.507 427.178 253.78 427.542C254.387 428.362 255.388 429.97 256.025 432.063C256.844 434.794 257.087 438.951 253.992 443.351C253.719 443.654 253.264 443.715 252.96 443.472Z" fill="#F47458"/>
<path d="M232.721 434.096C232.357 431.79 231.113 430.606 230.112 430.03C228.655 429.18 226.744 429.059 225.075 429.696C223.467 430.303 222.192 431.729 221.707 433.368C221.282 434.824 221.586 436.341 222.556 437.585C224.165 439.679 226.653 439.345 227.866 438.829C228.959 438.344 229.778 437.221 229.96 435.977C230.112 434.945 229.626 433.975 228.746 433.398C227.866 432.821 226.744 432.821 225.894 433.398C225.257 433.823 224.62 434.612 225.227 436.159L225.712 435.977C225.318 435.006 225.469 434.308 226.167 433.853C226.865 433.398 227.745 433.398 228.473 433.853C229.202 434.308 229.566 435.097 229.444 435.916C229.293 437.009 228.595 437.98 227.654 438.374C226.592 438.829 224.377 439.133 222.951 437.312C221.859 435.886 221.919 434.49 222.192 433.58C222.617 432.093 223.801 430.789 225.227 430.242C226.774 429.635 228.504 429.757 229.839 430.515C231.113 431.244 231.932 432.518 232.175 434.217C232.509 436.402 232.114 438.131 230.961 439.376C228.807 441.712 224.256 441.682 223.467 441.651C223.74 441.833 224.043 442.015 224.347 442.167H224.377C225.773 442.167 229.293 441.924 231.326 439.709C232.63 438.344 233.085 436.463 232.721 434.096Z" fill="#F47458"/>
<path d="M223.892 419.107H222.526V423.719H223.892V419.107Z" fill="#F7CC7F"/>
<path d="M213.119 420.564H203.834V422.263H213.119V420.564Z" fill="#1A1A1A"/>
<path d="M200.857 413.379L185.173 443.115L185.63 443.356L201.313 413.619L200.857 413.379Z" fill="black"/>
<path d="M218.468 413.151L218.012 413.391L234.11 443.906L234.566 443.666L218.468 413.151Z" fill="black"/>
<path d="M251.609 411.162L251.131 411.356L264.174 443.363L264.652 443.168L251.609 411.162Z" fill="black"/>
<path d="M235.973 402.624L235.486 402.796L249.781 443.312L250.267 443.14L235.973 402.624Z" fill="black"/>
<path d="M266.099 442.775H175.708V443.716H266.099V442.775Z" fill="#13375B"/>
<path d="M112.169 543.938C112.169 543.938 181.139 555.378 181.988 554.892C182.807 554.407 191.758 515.841 191.758 515.841C191.758 515.841 134.714 505.585 133.804 505.585C132.894 505.585 120.483 515.507 120.301 516.175C120.119 516.842 112.169 543.938 112.169 543.938Z" fill="#183658"/>
<path d="M322.596 553.738C324.265 553.89 407.799 552.1 407.799 552.1L401.518 532.893C401.518 532.893 389.927 515.385 383.828 515.688C377.699 516.022 341.318 510.105 335.037 514.475C328.756 518.844 323.142 515.355 320.138 525.793C317.165 536.2 314.828 537.384 317.165 543.665C319.441 549.945 322.596 553.738 322.596 553.738Z" fill="#183658"/>
<path d="M147.003 579.257C162.705 579.257 175.434 566.528 175.434 550.826C175.434 535.124 162.705 522.395 147.003 522.395C131.301 522.395 118.572 535.124 118.572 550.826C118.572 566.528 131.301 579.257 147.003 579.257Z" fill="#1A1A1A"/>
<path d="M147.003 570.609C157.929 570.609 166.786 561.751 166.786 550.825C166.786 539.899 157.929 531.042 147.003 531.042C136.077 531.042 127.219 539.899 127.219 550.825C127.219 561.751 136.077 570.609 147.003 570.609Z" fill="#9E9DA2"/>
<path d="M147.002 564.055C154.309 564.055 160.232 558.132 160.232 550.825C160.232 543.519 154.309 537.596 147.002 537.596C139.696 537.596 133.773 543.519 133.773 550.825C133.773 558.132 139.696 564.055 147.002 564.055Z" fill="#D8D9DD"/>
<path d="M365.926 579.257C381.628 579.257 394.357 566.528 394.357 550.826C394.357 535.124 381.628 522.395 365.926 522.395C350.224 522.395 337.495 535.124 337.495 550.826C337.495 566.528 350.224 579.257 365.926 579.257Z" fill="#1A1A1A"/>
<path d="M365.927 570.609C376.853 570.609 385.711 561.751 385.711 550.825C385.711 539.899 376.853 531.042 365.927 531.042C355.001 531.042 346.144 539.899 346.144 550.825C346.144 561.751 355.001 570.609 365.927 570.609Z" fill="#9E9DA2"/>
<path d="M352.697 550.825C352.697 558.138 358.614 564.055 365.927 564.055C373.239 564.055 379.156 558.138 379.156 550.825C379.156 543.513 373.239 537.596 365.927 537.596C358.614 537.565 352.697 543.513 352.697 550.825Z" fill="#D8D9DD"/>
<path d="M431.194 523.729C428.797 507.89 421.029 504.552 398.029 499.94C372.663 494.873 340.469 478.336 340.469 478.336C340.469 478.336 285.549 451.422 272.107 448.327C258.665 445.232 225.561 446.112 197.767 446.355C169.973 446.567 153.649 454.304 139.539 465.319C125.43 476.333 100.943 484.738 100.943 484.738L96.4829 485.527C91.9011 486.346 88.5938 490.321 88.5938 494.964V534.288C88.5938 538.748 91.5977 542.632 95.9064 543.785L111.988 548.033C113.293 548.246 114.506 547.335 114.658 546C116.418 529.919 130.315 517.69 146.913 517.69C164.542 517.721 179.015 532.194 179.015 549.854C179.015 551.856 178.833 553.829 178.469 555.71C178.105 557.682 179.622 559.472 181.625 559.472H329.546C332.428 559.472 334.643 556.954 334.279 554.102C334.097 552.736 334.006 551.341 334.006 549.914C333.945 532.498 348.055 518.055 365.471 517.69C383.525 517.326 398.272 531.83 398.272 549.823C398.272 551.007 398.211 552.19 398.09 553.343C397.726 556.62 400.275 559.472 403.552 559.472H424.822C428.675 559.472 431.831 556.347 431.831 552.463V531.861C431.77 529.19 431.619 526.429 431.194 523.729Z" fill="#F7CC7F"/>
<path d="M89.534 499.637H107.042C108.529 499.637 109.56 501.154 108.984 502.55L107.011 507.253C105.13 511.743 100.761 514.656 95.906 514.656H89.534C88.29 514.656 87.2583 513.655 87.2583 512.381V501.912C87.2583 500.638 88.29 499.637 89.534 499.637Z" fill="#CF283C"/>
<path d="M403.338 506.92C412.987 508.407 424.093 517.54 424.093 517.54C426.763 520.392 424.548 525.034 420.664 524.792L401.851 523.608C397.937 523.366 394.599 520.695 393.537 516.933C391.686 510.591 393.234 505.372 403.338 506.92Z" fill="#EAFCFC"/>
<path d="M88.6844 535.775C87.4707 535.745 86.6211 536.958 87.0763 538.081C88.3203 541.267 91.0208 543.755 94.4799 544.665L112.504 549.429C113.96 549.672 115.325 548.64 115.507 547.154C115.841 544.089 116.569 541.176 117.631 538.415C117.996 537.474 117.298 536.473 116.327 536.442L88.6844 535.775Z" fill="#EAB054"/>
<path d="M398.393 543.179C397.028 543.148 395.966 544.332 396.148 545.697C396.33 547.214 396.451 548.732 396.451 550.309C396.451 551.644 396.391 552.919 396.239 554.224C395.844 557.865 398.666 561.051 402.307 561.051H425.914C430.192 561.051 433.682 557.561 433.682 553.283V547.184C433.682 545.454 432.286 544.028 430.557 543.998L398.393 543.179Z" fill="#EAB054"/>
<path opacity="0.5" d="M340.498 487.469C340.195 487.287 308.912 470.144 288.187 460.525C267.645 451.028 244.737 452.029 243.766 452.059C241.126 451.999 186.296 450.815 169.456 456.065C152.464 461.344 130.375 485.467 129.434 486.498L129.191 486.772L135.139 514.687L135.776 514.657C153.071 513.686 166.301 518.298 174.068 527.977C179.925 535.29 180.653 543.027 180.653 543.118L180.713 543.786L243.068 545.394H243.796L244.555 545.424L331.456 547.123V546.365C331.881 518.116 340.832 488.653 340.893 488.349L341.075 487.773L340.498 487.469ZM182.018 542.299C181.715 540.205 180.41 533.59 175.252 527.097C169.699 520.118 158.411 512.047 136.322 513.139L130.8 487.227C133.348 484.465 154.285 462.376 169.911 457.491C185.538 452.606 236.362 453.425 243.068 453.546V543.877L182.018 542.299ZM329.939 545.576L244.524 543.907V453.546C248.529 453.425 269.072 453.303 287.581 461.89C306.788 470.781 335.067 486.195 339.285 488.501C338.01 492.719 330.485 519.542 329.939 545.576Z" fill="#FEB546"/>
<path opacity="0.5" d="M87.0757 538.082C88.3197 541.268 91.0203 543.756 94.4793 544.667L112.503 549.43C113.959 549.673 115.325 548.642 115.507 547.155C115.628 545.971 115.81 544.818 116.053 543.696L87.0757 538.082Z" fill="#FEB546"/>
<path opacity="0.5" d="M396.391 552.008C396.36 552.767 396.3 553.495 396.209 554.254C395.814 557.895 398.636 561.081 402.277 561.081H425.884C430.162 561.081 433.652 557.591 433.652 553.313V552.039H396.391V552.008Z" fill="#FEB546"/>
<path d="M335.371 552.009C335.371 550.401 335.492 548.823 335.705 547.276C335.978 545.425 334.582 543.726 332.701 543.665L178.832 539.903C177.164 539.872 175.95 541.45 176.405 543.089C177.194 545.91 177.619 548.884 177.619 551.949C177.619 553.982 177.437 555.954 177.073 557.896C176.708 559.898 178.226 561.78 180.259 561.78H330.819C333.763 561.78 336.008 559.17 335.613 556.227C335.462 554.831 335.371 553.405 335.371 552.009Z" fill="#EAB054"/>
<path opacity="0.5" d="M335.371 552.009C335.371 551.979 335.371 551.948 335.371 551.918H177.65C177.65 553.951 177.468 555.923 177.103 557.865C176.739 559.868 178.257 561.749 180.289 561.749H330.85C333.793 561.749 336.039 559.14 335.644 556.196C335.462 554.831 335.371 553.405 335.371 552.009Z" fill="#FEB546"/>
<path d="M147.61 490.11L232.631 490.899C232.631 490.899 237.85 490.747 238.548 485.862C239.245 480.977 239.185 459.979 239.185 459.979C239.185 459.979 238.578 455.762 234.542 455.701C232.084 455.671 211.542 454.214 191.577 456.642C175.283 458.614 160.202 466.078 148.763 477.518L142.725 483.556C142.725 483.556 138.659 490.019 147.61 490.11Z" fill="#EAFCFC"/>
<path d="M248.651 462.65V484.649C248.651 487.501 250.836 489.867 253.628 489.958L320.442 492.659C321.99 492.72 323.477 492.022 324.357 490.717C325.57 488.957 325.692 486.044 319.714 482.13C309.307 475.364 282.817 460.678 273.017 459.282C266.766 458.372 258.604 457.977 253.506 457.825C250.866 457.734 248.651 459.919 248.651 462.65Z" fill="#EAFCFC"/>
<path d="M160.203 479.823C160.203 479.823 215.608 473.512 216.792 474.604C217.975 475.697 225.682 493.72 227.078 498.636L161.811 498.029L157.229 491.111L160.203 479.823Z" fill="#B75742"/>
<path d="M277.689 484.799C277.689 484.799 282.787 490.837 284.243 497.331L282.635 499.94L279.419 496.542L277.689 484.799Z" fill="#263D60"/>
<path d="M283.121 468.961C282.15 462.589 276.385 458.007 270.377 461.102C269.012 461.8 267.191 463.196 266.251 464.409C263.732 467.656 263.065 471.661 260.455 474.817C261.426 475.545 262.579 476.304 263.944 477.032L265.583 474.847L265.037 477.548C269.072 479.49 274.777 481.068 282.605 481.037C283.576 476.638 283.637 472.359 283.121 468.961Z" fill="#1A1A1A"/>
<path d="M269.618 482.978C269.618 482.978 263.822 482.614 261.547 485.102C259.241 487.59 266.644 507.343 267.039 510.499C267.464 513.685 263.61 519.996 263.61 519.996C263.61 519.996 279.54 527.46 283.454 524.881C283.454 524.881 282.817 499.424 282.423 497.178C281.998 494.903 278.539 485.678 277.689 484.768C276.84 483.888 269.618 482.978 269.618 482.978Z" fill="#355389"/>
<path d="M271.529 475.241C271.529 475.241 271.499 475.423 271.438 475.696C271.165 477.092 270.194 481.704 269.527 482.979C268.707 484.526 272.318 489.411 275.777 488.805C276.809 488.622 274.897 484.314 274.988 483.859C275.17 482.979 275.413 481.795 275.656 480.551C275.808 479.853 275.929 479.156 276.05 478.488C276.415 476.607 276.718 475.09 276.718 475.09L271.529 475.241Z" fill="#F7A491"/>
<path d="M160.627 480.886C160.567 480.491 160.415 480.158 160.202 479.824L151.98 488.077C151.98 488.077 145.79 497.878 159.414 498.029L163.146 498.06L160.627 480.886Z" fill="#B75742"/>
<path opacity="0.3" d="M271.439 475.697C271.5 475.394 271.53 475.242 271.53 475.242L276.719 475.121C276.719 475.121 276.416 476.638 276.051 478.519C275.93 479.187 275.778 479.854 275.657 480.552C274.868 480.431 274.018 480.036 273.169 479.308C272.259 478.519 271.652 477.548 271.288 476.517C271.348 476.213 271.409 475.91 271.439 475.697Z" fill="#F47458"/>
<path d="M275.019 463.468C275.019 463.468 272.591 463.195 271.044 465.168C269.527 467.14 267.858 473.269 271.681 476.577C275.474 479.914 279.236 476.152 279.813 472.146C280.359 468.172 280.572 463.347 275.019 463.468Z" fill="#F7A491"/>
<path d="M280.906 472.117C280.451 472.997 279.693 473.482 279.207 473.209C278.722 472.936 278.691 471.996 279.146 471.116C279.602 470.236 280.36 469.75 280.846 470.023C281.331 470.296 281.361 471.237 280.906 472.117Z" fill="#F7A491"/>
<path d="M275.292 462.832C275.292 462.832 272.015 468.658 269.709 468.901C267.373 469.174 267.069 472.269 267.069 472.269C267.069 472.269 267.919 465.138 270.225 463.773C272.531 462.407 275.292 462.832 275.292 462.832Z" fill="#1A1A1A"/>
<path d="M270.317 470.387C270.499 471.419 270.135 472.36 269.467 472.511C268.8 472.633 268.102 471.904 267.92 470.873C267.738 469.841 268.102 468.901 268.769 468.749C269.437 468.627 270.135 469.356 270.317 470.387Z" fill="#F7A491"/>
<path d="M262.093 511.198C262.093 511.137 264.278 501.822 265.158 499.758C266.038 497.695 269.497 488.107 269.497 488.107L265.036 487.136C265.036 487.136 262.154 494.63 260.849 498.029C259.544 501.427 260.09 507.678 260.03 509.438C260.03 509.468 259.848 510.924 259.848 510.955C259.817 511.137 259.757 511.319 259.757 511.349C259.696 511.44 259.544 512.017 259.544 512.078C259.544 512.138 259.393 512.32 259.362 512.411C259.301 512.502 259.18 513.686 259.15 513.898C259.119 514.08 259.21 514.535 259.21 514.535L259.15 515.324C259.119 515.901 259.726 515.749 259.726 515.749C259.726 516.022 259.817 516.174 259.969 516.234C260.121 516.295 260.303 516.234 260.333 516.265C260.363 516.265 260.363 516.356 260.363 516.356C260.333 516.538 260.546 516.659 260.667 516.69C260.788 516.72 261.031 516.629 261.092 516.538C261.152 516.447 261.213 516.477 261.213 516.477C261.334 516.599 261.85 516.568 261.972 516.417C262.093 516.265 262.184 515.415 262.245 515.324C262.305 515.233 262.396 515.112 262.427 514.99C262.457 514.869 262.852 513.989 262.882 513.837C262.912 513.686 262.639 513.079 262.609 512.715C262.548 512.351 262.214 511.835 262.123 511.653C262.063 511.622 262.093 511.44 262.093 511.198Z" fill="#F48C7F"/>
<path d="M276.84 474.088L273.078 473.906C273.078 473.906 273.078 475.332 274.746 475.454C276.749 475.636 276.84 474.088 276.84 474.088Z" fill="white"/>
<path d="M256.329 476.971L254.964 485.952C254.964 485.952 259.91 496.633 262.883 495.723C265.371 494.934 263.824 485.497 263.824 485.497C263.824 485.497 262.459 480.43 262.883 477.881C263.278 475.302 256.329 476.971 256.329 476.971Z" fill="#F7A491"/>
<path d="M262.883 477.852C263.277 475.303 256.329 476.972 256.329 476.972L256.208 477.731C256.42 478.216 256.663 478.641 256.966 478.975C258.514 480.644 260.941 481.675 263.065 481.736C262.853 480.34 262.731 478.884 262.883 477.852Z" fill="#F47458"/>
<path d="M255.176 464.258C254.994 464.198 253.598 474.484 256.208 477.306C258.817 480.128 263.945 481.068 265.766 478.823C267.799 476.365 267.677 465.29 263.611 462.377C259.545 459.495 255.176 464.258 255.176 464.258Z" fill="#F7A491"/>
<path d="M262.094 456.916C258.938 457.553 256.905 459.495 256.147 460.314C254.721 460.496 252.779 461.285 250.776 464.623C248.318 468.719 250.139 473.27 252.991 475.516C255.874 477.731 255.813 480.31 255.813 480.31L256.268 478.975C256.602 477.973 256.754 476.881 256.632 475.849C256.572 475.212 256.42 474.514 256.177 473.968C255.479 472.481 257.664 471.48 258.271 470.236C258.726 469.295 258.756 467.111 259.515 465.533L260.395 464.319C260.395 464.319 262.428 462.741 264.43 463.166C266.403 463.591 266.13 456.066 262.094 456.916Z" fill="#13375B"/>
<path d="M258.12 472.056C258.151 473.3 257.574 474.332 256.846 474.362C256.118 474.362 255.511 473.361 255.511 472.117C255.511 470.873 256.057 469.841 256.785 469.811C257.513 469.781 258.12 470.782 258.12 472.056Z" fill="#F7A491"/>
<path d="M262.398 474.939L266.343 474.727C266.343 474.727 266.343 476.244 264.583 476.365C262.489 476.547 262.398 474.939 262.398 474.939Z" fill="white"/>
<path d="M253.841 485.589C254.205 484.922 254.873 484.466 255.631 484.375C258.939 484.072 268.072 484.072 272.745 492.143C273.473 493.418 274.019 494.783 274.383 496.209L275.354 500.245L251.323 499.456L251.353 496.786C251.171 492.902 251.99 489.018 253.841 485.589Z" fill="#3C8F7C"/>
<path d="M310.885 501.731L314.374 487.561C314.617 486.62 314.04 485.649 313.069 485.406C312.129 485.163 311.158 485.74 310.915 486.711L307.274 501.549L310.885 501.731Z" fill="#1A1A1A"/>
<path d="M301.872 501.306C302.874 500.699 303.663 500.184 304.209 499.85C304.239 499.82 306.758 498.606 306.818 498.606C307.182 498.484 307.486 498.363 307.546 498.363C307.728 498.363 308.821 497.999 308.912 497.938C309.003 497.908 309.458 497.908 309.64 497.908C309.822 497.908 311.855 496.876 312.189 496.694C312.523 496.543 313.13 495.936 313.13 495.936L314.434 495.177C315.405 494.631 314.525 493.812 314.525 493.812C314.98 493.539 315.102 493.235 315.041 492.932C314.95 492.628 314.707 492.386 314.677 492.325C314.677 492.264 314.798 492.173 314.798 492.173C315.102 492.021 315.102 491.566 315.011 491.324C314.92 491.081 314.556 490.808 314.343 490.808C314.161 490.777 314.131 490.686 314.131 490.686C314.161 490.353 313.645 489.594 313.281 489.564C312.917 489.533 311.461 490.262 311.279 490.262C311.097 490.262 310.793 490.201 310.581 490.322C310.368 490.413 308.578 490.656 308.275 490.808C307.971 490.959 307.304 491.961 306.818 492.386C306.333 492.841 305.817 493.933 305.665 494.236C305.605 494.358 305.271 494.54 304.907 494.722C304.846 494.783 293.892 498.727 287.429 500.669L301.872 501.306Z" fill="#F7A491"/>
<path d="M267.737 499.94C267.07 495.875 266.22 491.596 265.31 489.594C263.338 485.255 256.693 482.675 253.446 485.376C251.716 486.802 252.445 493.66 253.931 499.576L267.737 499.94Z" fill="#50BFA5"/>
<path d="M171.216 476.365C171.216 476.365 163.085 476.152 160.323 478.003C157.562 479.824 157.896 498.03 157.896 498.03L160.566 498.545C160.566 498.545 161.537 511.077 163.631 511.714C165.724 512.382 179.379 508.164 182.231 504.644C185.083 501.125 176.223 475.151 176.223 475.151L171.216 476.365Z" fill="#3C8F7C"/>
<path d="M185.69 461.921C186.388 459.736 186.873 453.091 187.025 450.816C186.904 450.664 186.327 449.693 186.388 447.781C186.418 446.446 185.508 444.231 186.358 444.383C187.207 444.535 187.268 446.841 187.784 446.446C188.299 446.052 188.542 441.197 189.301 441.318C190.09 441.44 189.544 446.022 189.999 445.657C190.454 445.293 190.484 441.076 191.577 441.288C192.669 441.47 191.091 446.234 191.668 446.355C192.244 446.446 193.185 443.442 194.065 443.594C194.945 443.746 192.608 447.66 192.881 447.478C193.154 447.266 195.036 445.657 195.339 446.021C195.703 446.416 191.334 451.028 191.334 452.211C191.698 455.276 192.426 460.798 191.425 464.288C190.211 468.536 187.116 478.003 187.116 478.003L180.532 476.425C180.532 476.486 184.84 464.531 185.69 461.921Z" fill="#F7A491"/>
<path d="M188.483 447.386C188.817 447.538 189.09 447.75 189.303 448.023C189.333 448.084 190.152 448.843 189.94 450.117C189.818 449.328 189.636 448.448 188.483 447.386Z" fill="#F48C7F"/>
<path d="M146.335 479.914C146.335 479.914 146.517 478.852 145.607 477.214C145.03 476.152 144.878 474.028 144.272 474.483C143.665 474.938 144.575 476.819 144.029 476.698C143.483 476.577 141.359 472.784 140.843 473.208C140.297 473.633 142.542 477.062 142.026 476.971C141.541 476.88 139.842 473.512 139.083 474.088C138.324 474.665 141.419 477.851 141.025 478.185C140.63 478.488 138.719 476.455 138.112 476.91C137.505 477.396 140.843 479.611 140.539 479.55C140.236 479.489 138.173 478.943 138.082 479.368C137.96 479.823 142.299 481.189 142.785 482.16C143.27 483.131 150.704 492.689 152.828 492.719C154.952 492.719 164.48 486.286 165.178 484.162C165.876 482.069 164.996 479.854 163.63 479.55C162.235 479.247 153.344 485.649 152.919 485.558C152.494 485.467 146.335 479.914 146.335 479.914Z" fill="#F7A491"/>
<path d="M144.12 477.608C143.908 477.881 143.787 478.215 143.696 478.549C143.696 478.609 143.362 479.702 144.181 480.673C143.938 479.945 143.635 479.125 144.12 477.608Z" fill="#F48C7F"/>
<path d="M166.393 493.144C166.393 493.144 174.95 499.941 175.89 501.337C176.588 502.368 174.252 514.081 174.252 514.081C174.252 514.081 170.853 514.172 169.306 512.988C169.306 512.988 170.247 504.887 169.822 504.583C169.427 504.28 160.021 500.093 160.021 500.093L160.628 495.299L166.393 493.144Z" fill="#B75742"/>
<path d="M182.839 468.657C182.839 468.657 184.325 468.931 189.393 474.453L183.506 486.438L178.075 476.486L182.839 468.657Z" fill="#9BC1F9"/>
<path d="M173.28 477.092C173.28 477.092 177.134 476.243 178.499 475.575C179.865 474.908 192.396 504.461 189.241 505.493C182.626 507.678 165.482 513.443 165.482 513.443C165.482 513.443 164.997 511.744 165.604 508.618C166.696 503.217 166.332 491.171 166.089 489.078C165.968 487.834 158.655 491.414 158.655 491.414L155.772 482.068C155.772 482.068 164.117 479.216 166.908 478.336C167.727 478.063 173.28 477.092 173.28 477.092Z" fill="#9BC1F9"/>
<path d="M187.572 495.389C185.995 490.504 175.648 476.516 175.557 476.364L177.256 475.211C177.62 475.758 186.086 487.652 187.724 492.81L187.572 495.389Z" fill="#3C8F7C"/>
<path d="M165.088 504.431L164.026 503.066C164.087 503.005 171.308 497.24 171.521 490.838C171.703 484.375 166.514 478.154 166.453 478.094L167.788 476.971C168.031 477.244 173.493 483.737 173.28 490.898C173.038 498.09 165.422 504.188 165.088 504.431Z" fill="#3C8F7C"/>
<path d="M171.429 457.34C171.429 457.34 174.494 455.064 177.376 458.766C179.682 461.709 179.379 460.769 180.532 462.256C181.685 463.712 183.414 463.833 183.657 466.291C183.93 468.719 182.838 469.234 182.838 469.234C182.838 469.234 184.082 471.025 183.141 473.088C182.201 475.151 179.561 477.154 177.164 477.124C177.164 477.124 173.826 479.46 170.155 478.914C166.483 478.368 167.727 478.246 166.271 478.398C164.814 478.55 160.657 476.972 160.991 473.998C160.991 473.998 158.291 471.389 160.354 468.81C162.447 466.23 163.57 464.41 164.571 461.133C165.573 457.856 169.73 456.764 171.429 457.34Z" fill="#1A1A1A"/>
<path d="M175.526 474.15C175.526 474.15 175.859 478.458 176.314 478.822C176.77 479.187 177.407 479.793 176.921 480.886C176.436 481.978 173.796 481.614 172.522 481.129C171.308 480.673 170.458 479.733 170.458 479.733L170.337 472.845L175.526 474.15Z" fill="#F7A491"/>
<path d="M174.008 476.122C173.158 475.91 171.641 475.515 170.336 473.816L170.306 472.845L175.525 474.15C175.525 474.15 175.616 475.212 175.738 476.304C175.04 476.365 174.402 476.213 174.008 476.122Z" fill="#F48C7F"/>
<path d="M168.182 469.082C168.182 469.082 167.788 466.563 166.271 467.231C164.753 467.899 166.362 471.6 167.636 471.327C168.941 471.054 168.182 469.082 168.182 469.082Z" fill="#F7A491"/>
<path d="M172.886 459.282C172.886 459.282 175.313 458.978 176.77 460.738C178.226 462.498 180.138 467.778 178.499 471.722C176.83 475.667 174.13 475.03 173.007 474.787C171.884 474.514 169.669 473.907 168.213 470.539C166.726 467.14 166.665 459.221 172.886 459.282Z" fill="#F7A491"/>
<path d="M222.526 499.577L227.016 520.938L219.279 520.179L215.577 500.639L222.526 499.577Z" fill="#F7A491"/>
<path d="M223.862 500.184L215.578 500.639C215.578 500.639 214.971 494.904 214.819 492.173C214.637 488.866 214.698 484.557 215.123 484.618C216.276 484.83 217.823 485.346 218.764 486.56C222.102 490.717 223.862 500.184 223.862 500.184Z" fill="#5184CE"/>
<path d="M218.401 491.444C218.613 492.445 223.862 520.391 223.862 520.391C211.452 527.218 201.955 521.392 201.955 521.392C201.955 521.392 202.44 502.61 201.803 500.001C201.378 498.271 199.861 486.923 200.953 486.559C202.38 486.073 204.534 485.345 206.324 485.072C207.872 484.829 213.849 484.435 214.941 484.738C214.941 484.708 217.581 487.226 218.401 491.444Z" fill="#EAFCFC"/>
<path d="M213.94 464.803C213.94 464.803 218.976 464.712 218.552 468.899C218.552 468.899 222.284 470.356 219.796 473.724C219.796 473.724 222.466 477.335 217.823 480.824C217.823 480.824 216.579 485.679 211.36 483.373C211.36 483.373 209.813 484.526 207.659 482.979C205.504 481.431 205.231 480.521 205.231 480.521C205.231 480.521 200.498 479.61 201.135 475.271C201.135 475.271 198.647 473.147 202.409 470.477C202.409 470.477 202.349 464.5 207.416 465.289C207.446 465.258 210.42 460.707 213.94 464.803Z" fill="#13375B"/>
<path d="M206.08 474.603C205.959 475.665 205.261 476.454 204.533 476.363C203.804 476.272 203.349 475.332 203.471 474.27C203.592 473.208 204.29 472.419 205.018 472.51C205.746 472.601 206.232 473.541 206.08 474.603Z" fill="#F7A491"/>
<path d="M217.884 477.821C217.428 478.792 216.549 479.338 215.881 479.034C215.213 478.731 215.031 477.699 215.487 476.728C215.942 475.757 216.822 475.211 217.489 475.515C218.157 475.818 218.308 476.85 217.884 477.821Z" fill="#F7A491"/>
<path d="M211.815 481.067C211.815 481.128 212.24 483.889 212.453 485.315C212.544 485.861 212.24 486.377 211.724 486.559C210.359 487.075 207.689 487.712 206.02 485.952C205.868 485.801 205.808 485.558 205.808 485.345L206.505 478.943L211.815 481.067Z" fill="#F7A491"/>
<path d="M212.24 483.828C210.783 484.435 206.596 483.919 206.262 481.279L206.505 478.973L211.815 481.067C211.815 481.097 212.118 482.978 212.24 483.828Z" fill="#F48C7F"/>
<path d="M213.181 468.05C213.181 468.05 210.966 467.564 208.872 468.869C206.748 470.174 203.319 475.332 206.202 479.823C209.054 484.314 213.939 482.099 215.638 478.548C217.338 474.998 218.066 469.719 213.181 468.05Z" fill="#F7A491"/>
<path d="M211.815 479.125L208.872 478.943C208.872 478.943 208.872 480.066 210.177 480.187C211.755 480.339 211.815 479.125 211.815 479.125Z" fill="white"/>
<path d="M216.944 470.538C216.944 470.538 214.789 469.385 213.212 469.537C211.603 469.688 206.415 473.481 205.656 472.844C204.898 472.207 205.869 468.869 206.475 468.384C207.082 467.898 209.479 466.442 209.692 466.411C209.904 466.381 212.089 466.411 212.453 466.533C212.817 466.624 215.548 467.928 215.548 467.928L216.944 470.538Z" fill="#13375B"/>
<path d="M185.812 522.91C185.842 522.789 185.964 522.789 186.085 522.758C187.178 522.698 188.27 522.607 189.362 522.425C189.544 522.394 189.726 522.334 189.878 522.273C190.181 522.152 190.485 522.121 190.788 522.212C190.97 522.243 191.122 522.243 191.304 522.243C191.85 522.212 193.428 521.636 194.217 521.484C194.399 521.454 194.551 521.302 194.581 521.12C195.279 517.934 196.766 510.834 196.918 508.497C197.1 505.524 198.738 492.052 198.738 492.052L204.261 493.417C204.261 493.417 202.319 503.369 201.833 508.194C201.469 511.896 198.01 519.876 196.918 522.182C196.402 523.881 195.127 523.972 194.854 524.002C194.672 524.033 194.52 524.124 194.429 524.245C194.247 524.488 194.005 524.7 193.762 524.882C193.58 525.004 193.428 525.186 193.307 525.368C193.094 525.702 192.882 526.066 192.7 526.43C192.579 526.673 192.427 526.764 192.214 526.703C192.002 526.642 191.881 526.491 191.881 526.217C191.881 525.823 192.002 525.459 192.184 525.125C192.366 524.791 192.336 524.609 192.123 524.336C192.002 524.184 191.85 524.033 191.699 523.881C191.517 523.76 191.365 523.669 191.122 523.699C190.728 523.82 190.333 523.911 189.939 523.972L189.605 524.063L189.423 524.093C189.393 524.093 188.816 524.184 188.604 524.184C188.452 524.184 188.179 524.215 187.966 524.215C187.754 524.245 187.329 524.154 187.329 524.154C187.147 524.154 186.965 524.093 186.813 523.972C186.753 523.911 186.692 523.851 186.722 523.76C186.753 523.669 186.813 523.638 186.904 523.608C187.026 523.578 187.724 523.487 187.693 523.456C187.481 523.456 186.844 523.456 186.662 523.456C186.389 523.456 186.146 523.365 185.964 523.183C185.873 523.122 185.782 523.031 185.812 522.91Z" fill="#F7A491"/>
<path d="M195.036 500.152L203.047 504.036C203.047 504.036 204.291 498.15 205.231 494.509C206.051 491.383 202.045 485.8 200.71 486.559C197.767 488.258 195.036 500.152 195.036 500.152Z" fill="#5184CE"/>
<path d="M249.229 489.776L320.534 492.81C320.534 492.81 314.314 513.625 314.162 514.657C314.01 515.689 290.616 528.463 284.73 528.311C278.843 528.159 265.128 523.244 262.185 522.364C259.242 521.484 251.565 515.507 252.02 511.835C252.506 508.164 249.229 489.776 249.229 489.776Z" fill="#F7CC7F"/>
<path d="M269.739 500.336H250.593C250.107 500.336 249.743 499.942 249.743 499.486V497.848C249.743 497.362 250.138 496.998 250.593 496.998H269.739C270.225 496.998 270.589 497.393 270.589 497.848V499.486C270.619 499.942 270.225 500.336 269.739 500.336Z" fill="#EAB054"/>
<path d="M278.023 460.617L287.672 464.592L287.126 462.589L283.515 460.617C283.515 460.617 280.572 460.041 280.268 459.889C280.026 459.737 278.023 460.617 278.023 460.617Z" fill="#F7CC7F"/>
<path opacity="0.6" d="M324.083 486.044L248.651 479.581V484.617C248.651 487.47 250.836 489.836 253.628 489.927L320.442 492.628C321.99 492.689 323.477 491.991 324.357 490.686C325.115 489.594 325.449 488.046 324.083 486.044Z" fill="#C5DDF9"/>
<path opacity="0.7" d="M248.651 479.58V478.882L323.81 485.679L324.083 486.043L248.651 479.58Z" fill="#C5DDF9"/>
<path opacity="0.2" d="M266.038 490.444L272.895 490.747L278.539 482.16L271.863 481.583L266.038 490.444Z" fill="white"/>
<path opacity="0.2" d="M278.235 490.959L283.727 482.585L281.178 482.372L275.625 490.838L278.235 490.959Z" fill="white"/>
<path d="M146.487 490.049L232.63 490.898L233.389 518.207C233.389 518.207 223.315 532.832 222.102 532.68C220.888 532.529 195.157 528.402 192.851 528.554C190.545 528.706 170.367 518.814 169.426 518.996C168.486 519.208 162.175 515.81 162.175 515.81L151.919 508.588L141.754 498.12L146.487 490.049Z" fill="#F7CC7F"/>
<path d="M163.934 498.635H144.788C144.302 498.635 143.938 498.241 143.938 497.786V496.147C143.938 495.662 144.332 495.298 144.788 495.298H163.934C164.419 495.298 164.783 495.692 164.783 496.147V497.786C164.783 498.271 164.389 498.635 163.934 498.635Z" fill="#EAB054"/>
<path d="M176.678 470.235L173.704 470.811C173.704 470.811 173.977 471.934 175.312 471.722C176.89 471.449 176.678 470.235 176.678 470.235Z" fill="white"/>
<path d="M167.423 467.383C167.423 467.383 174.159 464.288 174.827 459.463C175.495 454.639 169.305 459.251 169.305 459.251L166.786 461.648L167.423 467.383Z" fill="#1A1A1A"/>
<path d="M251.109 489.169C251.109 489.169 252.353 490.019 253.931 489.988C253.931 489.988 251.837 490.626 251.777 490.595C251.716 490.535 250.654 489.685 250.684 489.685C250.684 489.624 251.109 489.169 251.109 489.169Z" fill="#F7CC7F"/>
<path d="M257.602 457.976L266.037 458.522C266.037 458.522 264.671 456.246 264.065 456.246C263.458 456.246 259.635 456.246 259.635 456.246L257.602 457.976Z" fill="#F7CC7F"/>
<path d="M550.91 582.813H2.09039C0.935175 582.813 0 581.878 0 580.723C0 579.567 0.935175 578.632 2.09039 578.632H550.91C552.065 578.632 553 579.567 553 580.723C552.982 581.878 552.065 582.813 550.91 582.813Z" fill="#183658"/>
<path d="M476.371 317.273C476.371 167.043 125.136 229.403 125.136 56.6022" stroke="#75BF7A" stroke-width="4.04932" stroke-linecap="round" stroke-linejoin="round" stroke-dasharray="12.15 12.15"/>
<path d="M472.977 313.629C478.923 313.636 484.622 316.001 488.826 320.205C493.03 324.409 495.395 330.108 495.402 336.054C495.409 340.912 493.822 345.639 490.885 349.509C490.885 349.509 490.273 350.314 490.173 350.43L472.977 370.711L455.773 350.42C455.683 350.312 455.07 349.509 455.07 349.509L455.068 349.503C452.131 345.635 450.545 340.91 450.552 336.054C450.559 330.108 452.924 324.409 457.128 320.205C461.332 316.001 467.032 313.636 472.977 313.629ZM472.977 344.208C474.59 344.208 476.167 343.73 477.508 342.834C478.849 341.938 479.894 340.664 480.511 339.174C481.128 337.684 481.29 336.045 480.975 334.463C480.66 332.881 479.884 331.428 478.743 330.288C477.603 329.147 476.15 328.371 474.568 328.056C472.986 327.741 471.347 327.903 469.857 328.52C468.367 329.137 467.093 330.182 466.197 331.523C465.301 332.864 464.823 334.441 464.823 336.054C464.825 338.216 465.685 340.288 467.214 341.817C468.743 343.346 470.815 344.206 472.977 344.208Z" fill="#75BF7A"/>
<path d="M125.546 0.211426C131.491 0.21844 137.191 2.58333 141.395 6.78733C145.599 10.9913 147.964 16.6912 147.971 22.6365C147.978 27.4951 146.391 32.2218 143.453 36.0916C143.453 36.0916 142.841 36.8968 142.742 37.013L125.546 57.2935L108.341 37.0028C108.252 36.8948 107.638 36.0916 107.638 36.0916L107.636 36.0854C104.7 32.2174 103.113 27.4928 103.12 22.6365C103.127 16.6912 105.492 10.9913 109.696 6.78733C113.9 2.58333 119.6 0.21844 125.546 0.211426ZM125.546 30.7911C127.158 30.7911 128.735 30.3128 130.076 29.4168C131.417 28.5208 132.462 27.2472 133.079 25.7571C133.697 24.2671 133.858 22.6275 133.543 21.0456C133.229 19.4638 132.452 18.0108 131.312 16.8704C130.171 15.7299 128.718 14.9533 127.136 14.6386C125.555 14.324 123.915 14.4855 122.425 15.1027C120.935 15.7199 119.661 16.7651 118.765 18.1061C117.869 19.4471 117.391 21.0237 117.391 22.6365C117.394 24.7984 118.254 26.871 119.782 28.3997C121.311 29.9284 123.384 30.7884 125.546 30.7911Z" fill="#75BF7A"/>
</svg>
