<svg width="181" height="52" viewBox="0 0 181 52" fill="none" xmlns="http://www.w3.org/2000/svg">
<path d="M75.3228 20.0471H69.3844V50H62.5977V20.0471H57.7034V13.8477H62.5977V1.70989H69.3844V13.8477H75.3228V20.0471ZM115.021 31.467C115.021 32.5982 114.956 33.7293 114.826 34.8604H84.8727C85.5688 37.7317 86.9827 40.1027 89.1144 41.9734C91.2896 43.8006 93.8347 44.7142 96.7495 44.7142C98.8812 44.7142 100.882 44.1704 102.753 43.0828C104.667 41.9952 106.103 40.516 107.06 38.6453H113.847C112.455 42.3432 110.192 45.3233 107.06 47.5855C103.928 49.8042 100.404 50.9136 96.4884 50.9136C91.3984 50.9136 87.0479 49.0211 83.4371 45.2362C79.8697 41.4513 78.086 36.9921 78.086 31.8586C78.086 26.5945 79.8697 22.1135 83.4371 18.4157C87.0044 14.7178 91.3984 12.8688 96.619 12.8688C101.709 12.8688 106.038 14.696 109.605 18.3504C113.216 22.0048 115.021 26.377 115.021 31.467ZM108.235 29.6398C108.061 26.6815 106.799 24.18 104.45 22.1353C102.144 20.0906 99.512 19.0682 96.5537 19.0682C93.5954 19.0682 90.9416 20.0906 88.5924 22.1353C86.2866 24.18 85.0467 26.6815 84.8727 29.6398H108.235ZM137.444 19.8513C135.747 19.8513 134.116 20.2864 132.55 21.1564C129.896 22.5051 128.569 25.5287 128.569 30.2272V50H121.782V13.8477H128.112V17.1105H128.243C130.157 14.4132 133.224 12.9993 137.444 12.8688V19.8513ZM177.283 31.467C177.283 32.5982 177.218 33.7293 177.087 34.8604H147.134C147.831 37.7317 149.244 40.1027 151.376 41.9734C153.551 43.8006 156.096 44.7142 159.011 44.7142C161.143 44.7142 163.144 44.1704 165.015 43.0828C166.929 41.9952 168.365 40.516 169.322 38.6453H176.108C174.716 42.3432 172.454 45.3233 169.322 47.5855C166.189 49.8042 162.666 50.9136 158.75 50.9136C153.66 50.9136 149.31 49.0211 145.699 45.2362C142.131 41.4513 140.348 36.9921 140.348 31.8586C140.348 26.5945 142.131 22.1135 145.699 18.4157C149.266 14.7178 153.66 12.8688 158.881 12.8688C163.971 12.8688 168.299 14.696 171.867 18.3504C175.478 22.0048 177.283 26.377 177.283 31.467ZM170.496 29.6398C170.322 26.6815 169.061 24.18 166.711 22.1353C164.406 20.0906 161.774 19.0682 158.815 19.0682C155.857 19.0682 153.203 20.0906 150.854 22.1353C148.548 24.18 147.308 26.6815 147.134 29.6398H170.496Z" fill="#75BF7A"/>
<path d="M2.45605 16.2939L7.13574 20.998L7.22461 21.0879L7.19336 21.2109C6.80232 22.7019 6.60547 24.2677 6.60547 25.8838C6.60566 36.2098 14.9993 44.6035 25.3506 44.6035C35.6769 44.6035 44.0701 36.21 44.0703 25.8838C44.0703 24.2928 43.8746 22.7512 43.4834 21.2598L43.4512 21.1377L43.541 21.0479L48.2207 16.3438L48.4551 16.1074L48.582 16.416C49.7813 19.3394 50.4307 22.5374 50.4307 25.8838C50.4305 39.7225 39.1649 50.9881 25.3262 50.9883C11.4873 50.9883 0.22187 39.7226 0.22168 25.8838C0.22168 22.5113 0.896025 19.313 2.09473 16.3662L2.2207 16.0566L2.45605 16.2939ZM25.3262 0.779297C33.5948 0.779411 40.9391 4.80155 45.5098 10.9707L45.623 11.123L45.4883 11.2588L41.2295 15.5166L41.0391 15.707L40.8896 15.4834C38.0506 11.2493 33.5228 8.2157 28.2627 7.38379V7.38281C27.309 7.23613 26.3301 7.1631 25.3262 7.16309C24.322 7.16309 23.3426 7.23608 22.3887 7.38281C17.1528 8.21484 12.6259 11.2253 9.78711 15.459L9.6377 15.6826L5.05371 11.0986L5.16699 10.9453C9.73794 4.77583 17.0825 0.779297 25.3262 0.779297Z" fill="#75BF7A" stroke="#75BF7A" stroke-width="0.442372"/>
<path d="M28.5254 26.6945H22.1416L22.1416 3.20129L28.5254 3.20129L28.5254 26.6945Z" fill="#75BF7A" stroke="#75BF7A" stroke-width="0.442372"/>
</svg>
